<svg xmlns="http://www.w3.org/2000/svg" width="24" height="24" viewBox="0 0 24 24">
  <g id="Group_34871" data-name="Group 34871" transform="translate(-327 -50)">
    <g id="List" transform="translate(327 50)">
      <path id="Vector" d="M0,0H24V24H0Z" fill="none"/>
      <path id="Vector-2" data-name="Vector" d="M17.25,0H.75a.75.75,0,1,0,0,1.5h16.5a.75.75,0,1,0,0-1.5Z" transform="translate(3 11.25)" fill="#fff"/>
      <path id="Vector-3" data-name="Vector" d="M.75,1.5h16.5a.75.75,0,1,0,0-1.5H.75a.75.75,0,1,0,0,1.5Z" transform="translate(3 5.25)" fill="#fff"/>
      <path id="Vector-4" data-name="Vector" d="M17.25,0H.75a.75.75,0,1,0,0,1.5h16.5a.75.75,0,0,0,0-1.5Z" transform="translate(3 17.25)" fill="#fff"/>
    </g>
  </g>
</svg>
