<svg xmlns="http://www.w3.org/2000/svg" width="148.583" height="49.364" viewBox="0 0 148.583 49.364">
  <g id="logo" transform="translate(-4253.049 -1035.666)">
    <g id="logomarca" transform="translate(4253.049 1035.666)">
      <g id="Grupo_1" data-name="Grupo 1">
        <path id="Caminho_1" data-name="Caminho 1" d="M4308.35,1067.643a3.738,3.738,0,0,0,.017-.419,7.4,7.4,0,0,1,2.138-5.33c.682-.672,1.359-1.342,2.023-2.034a6.289,6.289,0,0,1,5.123-1.87c.1.011.211.016.318.018,1.817.042,3.559-1.349,3.112-3.287-.439-1.911-1-4.11-4.292-4.056a2.1,2.1,0,0,1-.306-.053,9.179,9.179,0,0,1-5.294-2.739q-1.082-1.128-2.128-2.288a11.007,11.007,0,0,1-2.687-5.285c-.021-.118-.047-.238-.081-.359a6.143,6.143,0,0,0-1.663-2.672,5.5,5.5,0,0,0-2.549-1.537c-1.942-.433-3.2,1.329-3.14,3.086a4.834,4.834,0,0,0,4.229,4.4l.078.009a7.922,7.922,0,0,1,4.813,2.589c1,1.086,1.964,2.195,2.99,3.254a8.685,8.685,0,0,1,2.556,4.834v.024a.066.066,0,0,0,0,.024,5.723,5.723,0,0,1-1.551,4.637c-.924.98-1.829,1.977-2.8,2.917a7.751,7.751,0,0,1-5.125,2.115l-.088,0a4.788,4.788,0,0,0-4.645,4.514,3.992,3.992,0,0,0,3.936,4.049c.121,0,.243,0,.364-.012A5.217,5.217,0,0,0,4308.35,1067.643Z" transform="translate(-4271.812 -1035.666)" fill="#236bfe"/>
        <path id="Caminho_2" data-name="Caminho 2" d="M4279.267,1090.989a4.274,4.274,0,0,0,.442.018,7.822,7.822,0,0,1,5.658,2.206c.672.7,1.336,1.4,2.01,2.1a6.167,6.167,0,0,1,1.688,5.093c-.014.1-.024.206-.03.309a2.933,2.933,0,0,0,1.827,2.995,5.188,5.188,0,0,0,4.43-1.2,4.115,4.115,0,0,0,1.078-2.087c.2-.718.082-1.407.3-2.136a11.175,11.175,0,0,1,2.483-4.248q1.06-1.154,2.146-2.285a9.5,9.5,0,0,1,5.229-2.759c.118-.018.236-.059.366-.075a4.914,4.914,0,0,0,4.275-4.16,2.381,2.381,0,0,0-.579-2.229,3.231,3.231,0,0,0-2.5-.823,4.9,4.9,0,0,0-4.407,4.1c0,.025-.007.05-.01.074a8.607,8.607,0,0,1-2.563,4.769c-1.036,1.05-2.013,2.151-3.014,3.232a7.932,7.932,0,0,1-4.761,2.572h-.047a5.607,5.607,0,0,1-4.631-1.618c-.954-.964-1.88-1.951-2.837-2.91a7.351,7.351,0,0,1-2.161-5v-.083a4.806,4.806,0,0,0-4.757-4.43,3.891,3.891,0,0,0-4.2,4.005A5.193,5.193,0,0,0,4279.267,1090.989Z" transform="translate(-4261.9 -1054.481)" fill="#236bfe"/>
        <path id="Caminho_3" data-name="Caminho 3" d="M4266.435,1044.4a8.571,8.571,0,0,1-4.664,4.66c-.386.149-1.369.553-1.738.125-.34-.4.291-1.127.511-1.419a38.911,38.911,0,0,1,4.594-4.594c.3-.223,1.021-.847,1.419-.5C4266.98,1043.046,4266.586,1044.005,4266.435,1044.4Z" transform="translate(-4255.864 -1038.487)" fill="#236bfe"/>
        <path id="Caminho_4" data-name="Caminho 4" d="M4324.3,1047.761c.214.281.853,1.019.511,1.411-.37.426-1.346.018-1.737-.135a8.65,8.65,0,0,1-4.664-4.682c-.15-.387-.547-1.338-.121-1.7.4-.338,1.132.3,1.418.511a38.274,38.274,0,0,1,4.594,4.594Z" transform="translate(-4279.644 -1038.484)" fill="#236bfe"/>
        <path id="Caminho_5" data-name="Caminho 5" d="M4266.45,1105.76c.149.381.541,1.328.118,1.689-.4.34-1.128-.284-1.419-.507a38.828,38.828,0,0,1-4.594-4.594c-.215-.282-.852-1.019-.5-1.4.38-.414,1.363.008,1.748.162A8.728,8.728,0,0,1,4266.45,1105.76Z" transform="translate(-4255.871 -1062.284)" fill="#236bfe"/>
        <path id="Caminho_6" data-name="Caminho 6" d="M4324.3,1102.352a38.319,38.319,0,0,1-4.594,4.594c-.285.217-1.019.849-1.419.521-.427-.35-.032-1.29.119-1.667a8.8,8.8,0,0,1,4.65-4.674c.39-.158,1.366-.583,1.747-.172C4325.149,1101.335,4324.506,1102.078,4324.3,1102.352Z" transform="translate(-4279.644 -1062.289)" fill="#236bfe"/>
        <path id="Caminho_7" data-name="Caminho 7" d="M4271.047,1086.717l-.086-.011a8.572,8.572,0,0,1-5.141-2.778c-.8-.868-1.593-1.747-2.423-2.587a9.213,9.213,0,0,1-2.778-5.129.066.066,0,0,0,0-.024l-.012-.082a5.636,5.636,0,0,1,1.7-4.914c.673-.635,1.359-1.258,2-1.928a7.7,7.7,0,0,1,5.645-2.3h.1a4.8,4.8,0,0,0,4.753-4.629,4.215,4.215,0,0,0-4.356-4.415,5.274,5.274,0,0,0-4.66,4.767c0,.033,0,.066-.006.1a8.583,8.583,0,0,1-2.312,5.581c-.672.672-1.349,1.337-2.047,1.981a6.644,6.644,0,0,1-5.118,1.655l-.076-.006a3.232,3.232,0,0,0-2.52.814,2.407,2.407,0,0,0-.591,2.232c.532,2.745,1.833,3.8,4.321,4.164.049.007.1.022.144.032a10.775,10.775,0,0,1,5.431,2.989q1.011,1.041,2,2.1a11.708,11.708,0,0,1,2.871,5.315c.014.067.031.135.05.2a6.2,6.2,0,0,0,4.185,4.179c1.913.419,3.2-1.234,3.141-3.006A4.828,4.828,0,0,0,4271.047,1086.717Z" transform="translate(-4253.051 -1044.76)" fill="#236bfe"/>
        <path id="Caminho_8" data-name="Caminho 8" d="M4285.06,1048.912a4.016,4.016,0,0,0-.447-.012,7.537,7.537,0,0,1-5.7-2.324c-.668-.718-1.323-1.449-1.989-2.17a6.5,6.5,0,0,1-1.7-5.227c.014-.1.024-.211.029-.316.077-1.79-1.191-3.563-3.156-3.124a6.325,6.325,0,0,0-2.971,1.305,6.488,6.488,0,0,0-1.241,2.984c-.026.1-.049.2-.066.3a11.078,11.078,0,0,1-2.719,5.325q-1.048,1.148-2.128,2.265a9.1,9.1,0,0,1-5.249,2.7,2.846,2.846,0,0,1-.366.065c-2.532.015-3.834,2.141-4.248,4.056-.424,1.96,1.265,3.273,3.068,3.279a4.617,4.617,0,0,0,4.395-4c0-.025.007-.051.01-.077a8.823,8.823,0,0,1,2.573-4.869c1.023-1.059,2-2.159,2.991-3.251a7.857,7.857,0,0,1,4.786-2.615h.048a5.576,5.576,0,0,1,4.673,1.675c.964,1.005,1.884,2.047,2.819,3.079a8.333,8.333,0,0,1,2.167,5.349v.088a4.788,4.788,0,0,0,4.773,4.552,4.111,4.111,0,0,0,4.231-3.987c0-.1,0-.208,0-.312A5.235,5.235,0,0,0,4285.06,1048.912Z" transform="translate(-4253.049 -1035.668)" fill="#236bfe"/>
      </g>
    </g>
    <g id="jobit" transform="translate(4317.949 1040.705)" style="isolation: isolate">
      <g id="Grupo_2" data-name="Grupo 2" transform="translate(0 1.852)" style="isolation: isolate">
        <path id="Caminho_9" data-name="Caminho 9" d="M4367.038,1055.117h2.648v25.5q0,4.917-4.843,4.918h-2v-2.119h1.438a2.956,2.956,0,0,0,2.156-.624,3.091,3.091,0,0,0,.605-2.175Zm3.292-5.844a1.915,1.915,0,0,1-.549,1.381,1.822,1.822,0,0,1-1.362.567,1.948,1.948,0,1,1,0-3.9,1.82,1.82,0,0,1,1.362.568A1.914,1.914,0,0,1,4370.33,1049.272Z" transform="translate(-4362.839 -1047.324)" fill="#fff"/>
        <path id="Caminho_10" data-name="Caminho 10" d="M4391.789,1081.281a9.478,9.478,0,0,1-7.226-2.95,10.822,10.822,0,0,1-2.78-7.737,10.528,10.528,0,0,1,2.95-7.755,10.648,10.648,0,0,1,14.755,0,10.476,10.476,0,0,1,2.952,7.718,10.267,10.267,0,0,1-3.1,7.737A10.477,10.477,0,0,1,4391.789,1081.281Zm-.019-2.119a7.66,7.66,0,0,0,5.561-2.307,8.438,8.438,0,0,0,2.347-6.3,8.612,8.612,0,0,0-2.233-6.28,7.321,7.321,0,0,0-5.447-2.289,7.106,7.106,0,0,0-5.372,2.27,8.8,8.8,0,0,0-2.157,6.318,9.107,9.107,0,0,0,2.043,6.318A6.75,6.75,0,0,0,4391.77,1079.162Z" transform="translate(-4370.584 -1052.453)" fill="#fff"/>
        <path id="Caminho_11" data-name="Caminho 11" d="M4434.792,1055.053a9.583,9.583,0,0,1,7.17,2.894,10.49,10.49,0,0,1,2.818,7.643,11.046,11.046,0,0,1-2.838,7.812,9.327,9.327,0,0,1-7.15,3.064,8.8,8.8,0,0,1-4.918-1.381,8.542,8.542,0,0,1-3.14-3.537v4.54h-2.647v-28h2.647v11.842a8.429,8.429,0,0,1,3.14-3.519A8.9,8.9,0,0,1,4434.792,1055.053Zm-.416,19.143a7.171,7.171,0,0,0,5.429-2.4,8.711,8.711,0,0,0,2.25-6.2,8.153,8.153,0,0,0-2.232-6.034,7.389,7.389,0,0,0-5.429-2.232,7.239,7.239,0,0,0-5.428,2.327,9.476,9.476,0,0,0,0,12.22A7.219,7.219,0,0,0,4434.376,1074.2Z" transform="translate(-4387.881 -1047.638)" fill="#fff"/>
      </g>
      <g id="Grupo_3" data-name="Grupo 3" transform="translate(60.152 0)" style="isolation: isolate">
        <path id="Caminho_12" data-name="Caminho 12" d="M4464.6,1047.709a3.858,3.858,0,1,1,3.858,3.481A3.579,3.579,0,0,1,4464.6,1047.709Zm.6,5.675h6.469v21.109H4465.2Z" transform="translate(-4464.597 -1044.191)" fill="#236bfe"/>
        <path id="Caminho_13" data-name="Caminho 13" d="M4484.45,1061.556h-2.573v-5.372h2.573v-5.145h6.468v5.145h4.237v5.372h-4.237v8.474c0,1.248.529,1.777,1.968,1.777h2.307v5.486H4491.9c-4.388,0-7.452-1.854-7.452-7.339Z" transform="translate(-4471.662 -1046.991)" fill="#236bfe"/>
      </g>
    </g>
  </g>
</svg>
