<svg id="vuesax_bold_status-up" data-name="vuesax/bold/status-up" xmlns="http://www.w3.org/2000/svg" width="40" height="40" viewBox="0 0 40 40">
  <g id="status-up">
    <path id="Vector" d="M23.65,0H9.683C3.617,0,0,3.617,0,9.683v13.95c0,6.083,3.617,9.7,9.683,9.7h13.95c6.067,0,9.683-3.617,9.683-9.683V9.683C33.333,3.617,29.717,0,23.65,0ZM9.383,26.917a1.25,1.25,0,1,1-2.5,0v-3.45a1.25,1.25,0,0,1,2.5,0Zm8.533,0a1.25,1.25,0,0,1-2.5,0V20a1.25,1.25,0,0,1,2.5,0Zm8.533,0a1.25,1.25,0,0,1-2.5,0V16.55a1.25,1.25,0,0,1,2.5,0Zm0-15.633a1.25,1.25,0,0,1-2.5,0V9.667A32.554,32.554,0,0,1,8.433,18.6a.923.923,0,0,1-.3.033,1.261,1.261,0,0,1-1.217-.95,1.246,1.246,0,0,1,.917-1.517A30.118,30.118,0,0,0,22.417,7.65H20.333a1.25,1.25,0,0,1,0-2.5h4.883c.067,0,.117.033.183.033a1.329,1.329,0,0,1,.25.05,1.665,1.665,0,0,1,.233.133c.05.033.1.05.15.083.017.017.017.033.033.033a1.765,1.765,0,0,1,.167.2.563.563,0,0,1,.117.183.827.827,0,0,1,.05.217,1.263,1.263,0,0,1,.05.267c0,.017.017.033.017.05v4.883Z" transform="translate(3.332 3.333)" fill="#236bfe"/>
    <path id="Vector-2" data-name="Vector" d="M0,0H40V40H0Z" transform="translate(40 40) rotate(180)" fill="none" opacity="0"/>
  </g>
</svg>
