<svg id="vuesax_bold_presention-chart" data-name="vuesax/bold/presention-chart" xmlns="http://www.w3.org/2000/svg" width="40" height="40" viewBox="0 0 40 40">
  <g id="presention-chart">
    <path id="Vector" d="M0,0H40V40H0Z" fill="none" opacity="0"/>
    <path id="Vector-2" data-name="Vector" d="M34.583,2.5H1.25A1.259,1.259,0,0,1,0,1.25,1.259,1.259,0,0,1,1.25,0H34.583a1.259,1.259,0,0,1,1.25,1.25A1.259,1.259,0,0,1,34.583,2.5Z" transform="translate(2.082 2.083)" fill="#fff"/>
    <path id="Vector-3" data-name="Vector" d="M15.7,8.9a1.254,1.254,0,0,1-1.117.683,1.273,1.273,0,0,1-.55-.133L7.92,6.4,1.8,9.45a1.273,1.273,0,0,1-.55.133A1.254,1.254,0,0,1,.137,8.9,1.233,1.233,0,0,1,.7,7.217L6.67,4.233V0h2.5V4.233l5.967,2.983A1.233,1.233,0,0,1,15.7,8.9Z" transform="translate(12.078 28.333)" fill="#fff"/>
    <path id="Vector-4" data-name="Vector" d="M0,0V20.167C0,23.333,1.667,25,4.833,25H25.167C28.333,25,30,23.333,30,20.167V0ZM23.3,10.967,18.05,15.35a2.1,2.1,0,0,1-1.683.467,2.064,2.064,0,0,1-1.433-1L13.183,11.9,8.3,15.967a1.208,1.208,0,0,1-.8.283,1.264,1.264,0,0,1-.967-.45A1.249,1.249,0,0,1,6.7,14.033L11.95,9.65a2.1,2.1,0,0,1,1.683-.467,2.064,2.064,0,0,1,1.433,1l1.75,2.917L21.7,9.033a1.249,1.249,0,0,1,1.767.167A1.264,1.264,0,0,1,23.3,10.967Z" transform="translate(5 3.333)" fill="#fff"/>
  </g>
</svg>
