<svg id="vuesax_bold_box" data-name="vuesax/bold/box" xmlns="http://www.w3.org/2000/svg" width="40" height="40" viewBox="0 0 40 40">
  <path id="Vector" d="M28.225,9.7,15.391,17.129a1.718,1.718,0,0,1-1.7,0L.858,9.7a1.69,1.69,0,0,1-.45-2.567A5.979,5.979,0,0,1,2.025,5.812l9.033-5a7.945,7.945,0,0,1,7,0l9.033,5a6.31,6.31,0,0,1,1.617,1.317A1.719,1.719,0,0,1,28.225,9.7Z" transform="translate(5.457 3.338)" fill="#236bfe"/>
  <path id="Vector-2" data-name="Vector" d="M15.333,8.676V20.042a1.685,1.685,0,0,1-2.417,1.55C9.483,19.909,3.7,16.759,3.7,16.759A8.168,8.168,0,0,1,0,10.326v-8.6A1.686,1.686,0,0,1,2.517.226L14.5,7.176A1.793,1.793,0,0,1,15.333,8.676Z" transform="translate(3.715 14.891)" fill="#236bfe"/>
  <path id="Vector-3" data-name="Vector" d="M0,8.676V20.042a1.685,1.685,0,0,0,2.417,1.55c3.433-1.683,9.217-4.833,9.217-4.833a8.168,8.168,0,0,0,3.7-6.433v-8.6a1.686,1.686,0,0,0-2.517-1.5L.833,7.176A1.793,1.793,0,0,0,0,8.676Z" transform="translate(20.949 14.891)" fill="#236bfe"/>
  <path id="Vector-4" data-name="Vector" d="M0,0H40V40H0Z" transform="translate(40 40) rotate(180)" fill="none" opacity="0"/>
</svg>
