<svg id="vuesax_bold_path-2" data-name="vuesax/bold/path-2" xmlns="http://www.w3.org/2000/svg" width="40" height="40" viewBox="0 0 40 40">
  <g id="path-2">
    <path id="Vector" d="M11.247,9.467h-7.2C1.48,9.467-.42,7.383.08,5.167L.947,1.3A1.661,1.661,0,0,1,2.58,0H12.73a1.675,1.675,0,0,1,1.633,1.3l.867,3.85C15.764,7.533,13.98,9.467,11.247,9.467Z" transform="translate(12.336 27.2)" fill="#236bfe"/>
    <path id="Vector-2" data-name="Vector" d="M24.934,19.483,23.151,21.05a3.378,3.378,0,0,1-2.2.833H6.217A3.289,3.289,0,0,1,4,21.033l-1.75-1.567c-2.867-2.35-2.883-4.15-.683-6.917L10.284,1.533A4.271,4.271,0,0,1,12.351,0V8.1A1.222,1.222,0,0,0,13.6,9.367,1.255,1.255,0,0,0,14.867,8.1V0a4.5,4.5,0,0,1,2.067,1.517L25.617,12.55C27.784,15.317,27.7,17.033,24.934,19.483Z" transform="translate(6.434 3.333)" fill="#236bfe"/>
    <path id="Vector-3" data-name="Vector" d="M0,0H40V40H0Z" fill="none" opacity="0"/>
  </g>
</svg>
