<svg id="vuesax_bold_code" data-name="vuesax/bold/code" xmlns="http://www.w3.org/2000/svg" width="40" height="40" viewBox="0 0 40 40">
  <g id="code">
    <path id="Vector" d="M23.65,0H9.683C3.617,0,0,3.617,0,9.683v13.95c0,6.083,3.617,9.7,9.683,9.7h13.95c6.067,0,9.683-3.617,9.683-9.683V9.683C33.333,3.617,29.717,0,23.65,0ZM13.233,18.783a11.8,11.8,0,0,1-4.533,4,1.273,1.273,0,0,1-.55.133A1.246,1.246,0,0,1,7.6,20.55a9.171,9.171,0,0,0,3.567-3.15,1.308,1.308,0,0,0,0-1.467A9.411,9.411,0,0,0,7.6,12.783,1.245,1.245,0,1,1,8.7,10.55a11.8,11.8,0,0,1,4.533,4A3.771,3.771,0,0,1,13.233,18.783ZM25,22.917H18.333a1.25,1.25,0,0,1,0-2.5H25a1.25,1.25,0,0,1,0,2.5Z" transform="translate(3.332 3.333)" fill="#236bfe"/>
    <path id="Vector-2" data-name="Vector" d="M0,0H40V40H0Z" transform="translate(40 40) rotate(180)" fill="none" opacity="0"/>
  </g>
</svg>
