<svg id="vuesax_bold_document-upload" data-name="vuesax/bold/document-upload" xmlns="http://www.w3.org/2000/svg" width="40" height="40" viewBox="0 0 40 40">
  <g id="document-upload">
    <path id="Vector" d="M30,13.65H25.183a7.177,7.177,0,0,1-7.167-7.167V1.667A1.672,1.672,0,0,0,16.35,0H9.283C4.15,0,0,3.333,0,9.283V24.05C0,30,4.15,33.333,9.283,33.333h13.1c5.133,0,9.283-3.333,9.283-9.283V15.317A1.672,1.672,0,0,0,30,13.65ZM15.05,19.217a1.247,1.247,0,0,1-1.767,0l-1.2-1.2V25a1.25,1.25,0,1,1-2.5,0V18.017l-1.2,1.2A1.249,1.249,0,0,1,6.617,17.45L9.95,14.117a1.785,1.785,0,0,1,.367-.25c.033-.017.083-.033.117-.05a1.77,1.77,0,0,1,.317-.067h.133a1.146,1.146,0,0,1,.4.083h.033a1.1,1.1,0,0,1,.367.25c.017.017.033.017.033.033L15.05,17.45A1.257,1.257,0,0,1,15.05,19.217Z" transform="translate(4.168 3.333)" fill="#236bfe"/>
    <path id="Vector-2" data-name="Vector" d="M4.583,11.325c1.583.017,3.783.017,5.667.017a1.051,1.051,0,0,0,.783-1.783c-2.4-2.417-6.7-6.767-9.167-9.233A1.089,1.089,0,0,0,0,1.058V6.875A4.543,4.543,0,0,0,4.583,11.325Z" transform="translate(24.465 3.359)" fill="#236bfe"/>
    <path id="Vector-3" data-name="Vector" d="M0,0H40V40H0Z" transform="translate(40 40) rotate(180)" fill="none" opacity="0"/>
  </g>
</svg>
