<svg id="vuesax_bold_stickynote" data-name="vuesax/bold/stickynote" xmlns="http://www.w3.org/2000/svg" width="40" height="40" viewBox="0 0 40 40">
  <g id="stickynote">
    <path id="Vector" d="M1.25,7.15A1.248,1.248,0,0,1,0,5.9V1.25a1.25,1.25,0,1,1,2.5,0V5.883A1.252,1.252,0,0,1,1.25,7.15Z" transform="translate(12.566 3.333)" fill="#236bfe"/>
    <path id="Vector-2" data-name="Vector" d="M1.25,7.15A1.248,1.248,0,0,1,0,5.9V1.25a1.25,1.25,0,0,1,2.5,0V5.883A1.252,1.252,0,0,1,1.25,7.15Z" transform="translate(24.934 3.333)" fill="#236bfe"/>
    <path id="Vector-3" data-name="Vector" d="M11.35,1.067a.983.983,0,0,1-.3.717C8.633,4.217,4.333,8.55,1.867,11.033a1.048,1.048,0,0,1-.783.333A1.077,1.077,0,0,1,0,10.3V4.467A4.547,4.547,0,0,1,4.6.017C6.183,0,8.383,0,10.267,0A1.067,1.067,0,0,1,11.35,1.067Z" transform="translate(24.484 25.3)" fill="#236bfe"/>
    <path id="Vector-4" data-name="Vector" d="M11.35,1.067a.983.983,0,0,1-.3.717C8.633,4.217,4.333,8.55,1.867,11.033a1.048,1.048,0,0,1-.783.333A1.077,1.077,0,0,1,0,10.3V4.467A4.547,4.547,0,0,1,4.6.017C6.183,0,8.383,0,10.267,0A1.067,1.067,0,0,1,11.35,1.067Z" transform="translate(24.484 25.3)" fill="#236bfe"/>
    <path id="Vector-5" data-name="Vector" d="M28.45,1.667a1.684,1.684,0,0,0-2.683,1.35v.167a3.9,3.9,0,0,1-3.35,3.95A3.756,3.756,0,0,1,18.267,3.4V1.667A1.672,1.672,0,0,0,16.6,0H15.067A1.672,1.672,0,0,0,13.4,1.667V3.183a4,4,0,0,1-2,3.5,1.243,1.243,0,0,1-.2.117c-.017,0-.017.017-.033.017-.117.05-.233.1-.367.15-.033.017-.067.017-.1.033a2.645,2.645,0,0,1-.65.133h-.017a2.951,2.951,0,0,1-.767,0H9.25A2.645,2.645,0,0,1,8.6,7a3.128,3.128,0,0,1-.5-.2A3.719,3.719,0,0,1,5.9,3.4V3.017a1.691,1.691,0,0,0-2.45-1.5c-.017.017-.033.017-.05.033H3.383c-.117.083-.217.167-.333.25-.183.15-.367.3-.533.467-.117.117-.233.233-.333.35a4.37,4.37,0,0,0-.367.417,2.322,2.322,0,0,0-.25.317,3.569,3.569,0,0,0-.217.317.23.23,0,0,0-.05.067,5.83,5.83,0,0,0-.4.7c-.033.033-.05.05-.05.083a4.051,4.051,0,0,0-.267.617,1.4,1.4,0,0,0-.1.233c-.033.067-.05.15-.083.217-.05.167-.1.35-.15.533A5.194,5.194,0,0,0,.1,6.85c-.033.183-.05.367-.067.567C.017,7.65,0,7.883,0,8.117v14.6a8.116,8.116,0,0,0,8.117,8.117H16.15a1.672,1.672,0,0,0,1.667-1.667V23.933a7.032,7.032,0,0,1,7.1-6.95c.883-.017,3.033-.017,5.083-.017A1.672,1.672,0,0,0,31.667,15.3V8.117A8.065,8.065,0,0,0,28.45,1.667ZM14.383,20.683a1.206,1.206,0,0,1-1.167.85H7.15a.457.457,0,0,1-.217-.033A1.209,1.209,0,0,1,5.9,20.283a1.252,1.252,0,0,1,1.25-1.267h6.067a1.263,1.263,0,0,1,1.25,1.267A.823.823,0,0,1,14.383,20.683ZM19.017,14.5a1.206,1.206,0,0,1-1.167.85H7.15a.457.457,0,0,1-.217-.033A1.209,1.209,0,0,1,5.9,14.1a1.252,1.252,0,0,1,1.25-1.267h10.7A1.252,1.252,0,0,1,19.1,14.1.823.823,0,0,1,19.017,14.5Z" transform="translate(4.168 5.833)" fill="#236bfe"/>
    <path id="Vector-6" data-name="Vector" d="M0,0H40V40H0Z" transform="translate(40 40) rotate(180)" fill="none" opacity="0"/>
  </g>
</svg>
