<svg id="vuesax_bold_people" data-name="vuesax/bold/people" xmlns="http://www.w3.org/2000/svg" width="40" height="40" viewBox="0 0 40 40">
  <g id="vuesax_bold_people-2" data-name="vuesax/bold/people">
    <g id="people">
      <path id="Vector" d="M0,0H40V40H0Z" fill="none" opacity="0"/>
      <path id="Vector-2" data-name="Vector" d="M4.983,9.617a1.231,1.231,0,0,0-.35,0,4.825,4.825,0,1,1,.35,0Z" transform="translate(24.232 3.333)" fill="#236bfe"/>
      <path id="Vector-3" data-name="Vector" d="M6.983,7.821a10.349,10.349,0,0,1-6.9,1.4,10.885,10.885,0,0,0,.983-4.483A10.241,10.241,0,0,0,0,.1,10.4,10.4,0,0,1,6.967,1.488C9.6,3.221,9.6,6.071,6.983,7.821Z" transform="translate(27.666 16.679)" fill="#236bfe"/>
      <path id="Vector-4" data-name="Vector" d="M4.633,9.617a1.231,1.231,0,0,1,.35,0,4.808,4.808,0,1,0-.35,0Z" transform="translate(6.1 3.333)" fill="#236bfe"/>
      <path id="Vector-5" data-name="Vector" d="M7.592,4.738a10.854,10.854,0,0,0,.983,4.533,10.3,10.3,0,0,1-6.6-1.433c-2.633-1.75-2.633-4.6,0-6.35A10.235,10.235,0,0,1,8.642.071,10.6,10.6,0,0,0,7.592,4.738Z" transform="translate(3.324 16.679)" fill="#236bfe"/>
      <path id="Vector-6" data-name="Vector" d="M5.95,11.45a1.883,1.883,0,0,0-.433,0,5.75,5.75,0,1,1,.433,0Z" transform="translate(14.25 15)" fill="#236bfe"/>
      <path id="Vector-7" data-name="Vector" d="M1.887,1.438c-2.517,1.683-2.517,4.45,0,6.117a10.184,10.184,0,0,0,10.433,0c2.517-1.683,2.517-4.45,0-6.117A10.184,10.184,0,0,0,1.887,1.438Z" transform="translate(12.896 28.462)" fill="#236bfe"/>
    </g>
  </g>
</svg>
