<svg id="vuesax_bold_chart-success" data-name="vuesax/bold/chart-success" xmlns="http://www.w3.org/2000/svg" width="40" height="40" viewBox="0 0 40 40">
  <g id="chart-success">
    <path id="Vector" d="M8.283,0h-4.9A3.111,3.111,0,0,0,0,3.383v4.9a3.111,3.111,0,0,0,3.383,3.383h4.9a3.111,3.111,0,0,0,3.383-3.383v-4.9A3.111,3.111,0,0,0,8.283,0Zm1.1,4.083L5.433,8.7A.851.851,0,0,1,4.8,9H4.767a.818.818,0,0,1-.6-.25L2.333,6.95A.872.872,0,0,1,3.567,5.717l1.15,1.15,3.35-3.9a.852.852,0,0,1,1.217-.1A.87.87,0,0,1,9.383,4.083Z" transform="translate(26.668 26.667)" fill="#236bfe"/>
    <path id="Vector-2" data-name="Vector" d="M8.283,0h-4.9A3.111,3.111,0,0,0,0,3.383v4.9a3.111,3.111,0,0,0,3.383,3.383h4.9a3.111,3.111,0,0,0,3.383-3.383v-4.9A3.111,3.111,0,0,0,8.283,0Zm1.1,4.083L5.433,8.7A.851.851,0,0,1,4.8,9H4.767a.818.818,0,0,1-.6-.25L2.333,6.95A.872.872,0,0,1,3.567,5.717l1.15,1.15,3.35-3.9a.852.852,0,0,1,1.217-.1A.87.87,0,0,1,9.383,4.083Z" transform="translate(26.668 26.667)" fill="#236bfe"/>
    <path id="Vector-3" data-name="Vector" d="M33.283,8.683A9.687,9.687,0,0,0,24.65.05q-.5-.05-1-.05H9.683q-.5,0-1,.05A9.687,9.687,0,0,0,.05,8.683q-.05.5-.05,1V23.65q0,.5.05,1a9.687,9.687,0,0,0,8.633,8.633q.5.05,1,.05H20a1.672,1.672,0,0,0,1.667-1.667v-4.95a5.057,5.057,0,0,1,5.05-5.05h4.95A1.672,1.672,0,0,0,33.333,20V9.683Q33.333,9.183,33.283,8.683ZM9.583,19.167a1.25,1.25,0,0,1-2.5,0v-5a1.25,1.25,0,0,1,2.5,0Zm8.333,0a1.25,1.25,0,0,1-2.5,0v-5a1.25,1.25,0,0,1,2.5,0Z" transform="translate(3.332 3.333)" fill="#236bfe"/>
    <path id="Vector-4" data-name="Vector" d="M0,0H40V40H0Z" transform="translate(40 40) rotate(180)" fill="none" opacity="0"/>
  </g>
</svg>
